<mxfile host="app.diagrams.net" modified="2021-10-27T05:39:51.418Z" agent="5.0 (Windows NT 10.0; Win64; x64) AppleWebKit/537.36 (KHTML, like Gecko) Chrome/95.0.4638.54 Safari/537.36" etag="5gkQ-xtAwDGtITZSJqlC" version="15.5.8" type="github">
  <diagram id="5k370UJEQ2Vip4GgY0lP" name="Page-1">
    <mxGraphModel dx="782" dy="436" grid="1" gridSize="10" guides="1" tooltips="1" connect="1" arrows="1" fold="1" page="1" pageScale="1" pageWidth="850" pageHeight="1100" math="0" shadow="0">
      <root>
        <mxCell id="0" />
        <mxCell id="1" parent="0" />
        <mxCell id="xxXSGKqWX_Z4R2sAJKBv-1" value="Event Listener to watch for a click on &#39;start&#39; button" style="rounded=0;whiteSpace=wrap;html=1;" parent="1" vertex="1">
          <mxGeometry x="200" y="40" width="390" height="40" as="geometry" />
        </mxCell>
        <mxCell id="xxXSGKqWX_Z4R2sAJKBv-2" value="Emit an event stating that timer has started" style="rounded=0;whiteSpace=wrap;html=1;" parent="1" vertex="1">
          <mxGeometry x="210" y="80" width="380" height="40" as="geometry" />
        </mxCell>
        <mxCell id="xxXSGKqWX_Z4R2sAJKBv-3" value="Start counting down the timer" style="rounded=0;whiteSpace=wrap;html=1;" parent="1" vertex="1">
          <mxGeometry x="210" y="120" width="380" height="40" as="geometry" />
        </mxCell>
        <mxCell id="hkjGfHRumK_yuW2bb-cR-1" value="Emit an even that timer has ticked" style="rounded=0;whiteSpace=wrap;html=1;" vertex="1" parent="1">
          <mxGeometry x="210" y="160" width="380" height="40" as="geometry" />
        </mxCell>
        <mxCell id="hkjGfHRumK_yuW2bb-cR-2" value="Each time the timer counts down update the text" style="rounded=0;whiteSpace=wrap;html=1;" vertex="1" parent="1">
          <mxGeometry x="210" y="200" width="380" height="40" as="geometry" />
        </mxCell>
        <mxCell id="hkjGfHRumK_yuW2bb-cR-3" value="If we counted down and timer reaches zero" style="rounded=0;whiteSpace=wrap;html=1;" vertex="1" parent="1">
          <mxGeometry x="210" y="240" width="380" height="40" as="geometry" />
        </mxCell>
        <mxCell id="hkjGfHRumK_yuW2bb-cR-4" value="Emit an event that timer is done" style="rounded=0;whiteSpace=wrap;html=1;" vertex="1" parent="1">
          <mxGeometry x="240" y="280" width="350" height="40" as="geometry" />
        </mxCell>
        <mxCell id="hkjGfHRumK_yuW2bb-cR-5" value="Reset internal timer to get ready for another run" style="rounded=0;whiteSpace=wrap;html=1;" vertex="1" parent="1">
          <mxGeometry x="240" y="320" width="350" height="40" as="geometry" />
        </mxCell>
        <mxCell id="hkjGfHRumK_yuW2bb-cR-6" value="Possible Implementation" style="text;html=1;align=center;verticalAlign=middle;resizable=0;points=[];autosize=1;strokeColor=none;fillColor=none;fontStyle=1;fontSize=28;" vertex="1" parent="1">
          <mxGeometry x="95" width="350" height="40" as="geometry" />
        </mxCell>
        <mxCell id="hkjGfHRumK_yuW2bb-cR-22" value="" style="edgeStyle=orthogonalEdgeStyle;rounded=0;orthogonalLoop=1;jettySize=auto;html=1;fontSize=13;entryX=1;entryY=0.5;entryDx=0;entryDy=0;" edge="1" parent="1" source="hkjGfHRumK_yuW2bb-cR-19" target="xxXSGKqWX_Z4R2sAJKBv-2">
          <mxGeometry relative="1" as="geometry" />
        </mxCell>
        <mxCell id="hkjGfHRumK_yuW2bb-cR-19" value="watch for this event&lt;br&gt;when it occurs draw&lt;br&gt;the border" style="rounded=0;whiteSpace=wrap;html=1;fontSize=13;" vertex="1" parent="1">
          <mxGeometry x="660" y="70" width="140" height="50" as="geometry" />
        </mxCell>
        <mxCell id="hkjGfHRumK_yuW2bb-cR-23" value="watch for this event&lt;br&gt;when it occurs update&lt;br&gt;the border" style="rounded=0;whiteSpace=wrap;html=1;fontSize=13;" vertex="1" parent="1">
          <mxGeometry x="660" y="160" width="140" height="50" as="geometry" />
        </mxCell>
        <mxCell id="hkjGfHRumK_yuW2bb-cR-30" value="" style="edgeStyle=orthogonalEdgeStyle;rounded=0;orthogonalLoop=1;jettySize=auto;html=1;fontSize=13;entryX=1;entryY=0.5;entryDx=0;entryDy=0;" edge="1" parent="1">
          <mxGeometry relative="1" as="geometry">
            <mxPoint x="660" y="185" as="sourcePoint" />
            <mxPoint x="590" y="190" as="targetPoint" />
            <Array as="points">
              <mxPoint x="625" y="185" />
              <mxPoint x="625" y="170" />
              <mxPoint x="590" y="170" />
            </Array>
          </mxGeometry>
        </mxCell>
        <mxCell id="hkjGfHRumK_yuW2bb-cR-32" value="" style="edgeStyle=orthogonalEdgeStyle;rounded=0;orthogonalLoop=1;jettySize=auto;html=1;fontSize=13;entryX=1;entryY=0.5;entryDx=0;entryDy=0;" edge="1" parent="1">
          <mxGeometry relative="1" as="geometry">
            <mxPoint x="650" y="300" as="sourcePoint" />
            <mxPoint x="580" y="305" as="targetPoint" />
          </mxGeometry>
        </mxCell>
        <mxCell id="hkjGfHRumK_yuW2bb-cR-33" value="watch for this event&lt;br&gt;when it occurs reset&lt;br&gt;the border" style="rounded=0;whiteSpace=wrap;html=1;fontSize=13;" vertex="1" parent="1">
          <mxGeometry x="650" y="280" width="140" height="50" as="geometry" />
        </mxCell>
      </root>
    </mxGraphModel>
  </diagram>
</mxfile>
